<?xml version="1.0" encoding="UTF-8"?>
<svg version="1.1" xmlns="http://www.w3.org/2000/svg" width="234" height="200">
<path d="M0 0 C1.8669603 -0.01073296 1.8669603 -0.01073296 3.77163696 -0.02168274 C5.1589353 -0.02452328 6.5462339 -0.02723497 7.93353271 -0.02983093 C9.38892784 -0.0360951 10.84432137 -0.04274185 12.29971313 -0.04974365 C17.0913786 -0.07081229 21.88304444 -0.0811565 26.67474365 -0.09111023 C28.32684089 -0.09515835 29.97893796 -0.09927529 31.63103485 -0.10346031 C39.40195796 -0.12252717 47.17287155 -0.13674858 54.94381356 -0.14507228 C63.89200595 -0.15481612 72.83994907 -0.18105421 81.78805375 -0.22157317 C88.71479689 -0.25185267 95.64146914 -0.26655277 102.56827712 -0.26985329 C106.69917715 -0.27219261 110.8298114 -0.28100405 114.96063995 -0.30631447 C118.85788172 -0.32980461 122.75468681 -0.33374564 126.65198135 -0.32355309 C128.07161802 -0.32306246 129.4912777 -0.32924074 130.91084671 -0.34310913 C145.70572605 -0.47938644 157.87103527 2.83247987 170.15911865 11.14717102 C171.14138428 11.8045929 171.14138428 11.8045929 172.14349365 12.47529602 C182.44005645 20.31579797 189.12051445 33.59759836 191.15911865 46.14717102 C192.24273232 61.05129994 189.51123862 74.11747314 180.15911865 86.14717102 C177.93777207 88.61917539 175.64061945 90.93720222 173.15911865 93.14717102 C174.59191162 93.67504211 174.59191162 93.67504211 176.0536499 94.21357727 C193.72713816 100.89160483 205.84498827 109.62647099 214.48724365 126.78388977 C219.25338391 138.54820076 219.25857494 154.75219448 214.4833374 166.51435852 C206.54666087 182.29406349 195.34617372 192.34662854 178.6708374 198.22798157 C169.52320317 200.98112871 160.40231031 200.74508116 150.9208374 200.71357727 C148.98559777 200.71882337 147.0503607 200.72510342 145.11512756 200.73236084 C141.08336238 200.74270638 137.05195152 200.73828371 133.02020264 200.72358704 C127.86770346 200.70633616 122.71631297 200.7300028 117.56393719 200.76507664 C113.57720125 200.78707723 109.59073012 200.7856039 105.60395241 200.77731133 C103.7042398 200.77649465 101.80450721 200.78330339 99.90485191 200.79808235 C97.24892829 200.81559497 94.59499326 200.80093536 91.93914795 200.77827454 C91.16546875 200.78996674 90.39178955 200.80165894 89.59466553 200.81370544 C83.74803713 200.71272623 79.52430139 199.1023083 75.15911865 195.14717102 C70.2039601 189.11247798 70.58392834 181.9755476 70.62567139 174.52412415 C70.61274803 172.65433144 70.61274803 172.65433144 70.5995636 170.74676514 C70.58082395 167.34771498 70.57998292 163.94964495 70.58888507 160.55061913 C70.59401664 157.7052392 70.58668504 154.85994556 70.579413 152.01457453 C70.56244896 145.29909285 70.56594498 138.58383861 70.58270264 131.86836243 C70.59962864 124.95624423 70.58377557 118.04475736 70.55147976 111.13270807 C70.52473478 105.18168058 70.51752077 99.23084903 70.52599484 93.27976751 C70.53090889 89.7326235 70.52879162 86.18585931 70.50820732 82.63876343 C70.48634353 78.68233243 70.50530445 74.72665573 70.52801514 70.7702179 C70.51047684 69.02284584 70.51047684 69.02284584 70.49258423 67.24017334 C70.57295164 60.35003483 71.43724272 55.37408042 76.15911865 50.14717102 C80.58119653 46.59365759 85.45845424 44.86431363 91.15911865 45.14717102 C97.27178806 46.52818152 102.30472778 49.29344548 105.77455139 54.63316345 C107.64143413 59.37127929 107.55583031 63.51241631 107.49969482 68.55879211 C107.50035194 70.11092407 107.50035194 70.11092407 107.50102234 71.69441223 C107.49893785 75.10333846 107.47562222 78.51176855 107.4520874 81.92060852 C107.44649026 84.28857657 107.44222072 86.6565481 107.43922424 89.02452087 C107.4277849 95.24868914 107.39832525 101.47264648 107.3651123 107.69673157 C107.33439198 114.05127611 107.32071469 120.40585483 107.30560303 126.76045227 C107.27345493 139.22278438 107.22226933 151.68496014 107.15911865 164.14717102 C114.58345129 164.08573052 122.00744577 164.00846162 129.43140411 163.91145611 C132.8793551 163.8668906 136.32719169 163.82760515 139.77532959 163.80073547 C143.74726098 163.76954565 147.71870488 163.71476225 151.69036865 163.65888977 C152.91775757 163.65249985 154.14514648 163.64610992 155.409729 163.63952637 C162.68811386 163.51539266 169.42246796 163.33076905 175.2177124 158.39326477 C175.67275146 157.79642883 176.12779053 157.1995929 176.59661865 156.58467102 C177.06970459 155.98525696 177.54279053 155.3858429 178.0302124 154.76826477 C180.82156928 150.75991493 180.71278991 146.8975099 180.15911865 142.14717102 C177.61407806 136.63291641 173.48781927 133.75948324 168.15911865 131.14717102 C164.08926848 129.95994248 160.09490715 129.97615358 155.88568115 129.93623352 C154.23983785 129.90816609 152.59400465 129.87950164 150.94818115 129.85029602 C148.36550164 129.80906739 145.78301084 129.77215972 143.20013428 129.74580383 C140.69909271 129.7180994 138.19889459 129.67223475 135.69818115 129.62373352 C134.93236725 129.62048065 134.16655334 129.61722778 133.37753296 129.61387634 C127.78010384 129.48639609 123.54094874 128.34424699 119.2958374 124.42842102 C118.81759521 123.84060852 118.33935303 123.25279602 117.84661865 122.64717102 C117.35548584 122.05935852 116.86435303 121.47154602 116.3583374 120.86592102 C112.74768838 115.69104945 113.93484209 108.63256228 113.91888428 102.5785675 C113.90919845 100.3530054 113.87817334 98.1283751 113.84661865 95.9030304 C113.84008593 94.47790564 113.83483652 93.05277431 113.83099365 91.62763977 C113.82164795 90.33752991 113.81230225 89.04742004 113.80267334 87.71821594 C114.26717975 83.06456164 115.70438009 79.72423987 118.87786865 76.28388977 C119.46568115 75.80564758 120.05349365 75.3274054 120.65911865 74.83467102 C121.24693115 74.34353821 121.83474365 73.8524054 122.44036865 73.34638977 C125.60958811 71.13513892 128.54651229 71.02101892 132.28411865 70.83467102 C139.33518801 70.22842828 144.64359993 68.23451634 150.09661865 63.70967102 C153.35881532 59.65663879 154.20112497 57.47037013 154.03411865 52.20967102 C153.31586453 48.01064694 152.07907888 45.35200542 149.15911865 42.14717102 C141.95769694 37.32885583 135.51391095 36.42019868 127.00823975 36.48774719 C125.83635101 36.47726349 124.66446228 36.46677979 123.45706177 36.45597839 C119.61528597 36.42736641 115.77441882 36.43350425 111.93255615 36.44013977 C109.25638077 36.42701635 106.58028641 36.41195258 103.90414429 36.39431763 C97.60039644 36.35700541 91.29686425 36.3447373 84.99301684 36.34169322 C77.81023085 36.33698837 70.62765903 36.30401962 63.44496799 36.26879537 C48.68303258 36.19702918 33.92122808 36.16410081 19.15911865 36.14717102 C19.15911865 47.69717102 19.15911865 59.24717102 19.15911865 71.14717102 C29.42034716 71.02879833 29.42034716 71.02879833 39.68109131 70.87690735 C41.60767578 70.86566833 41.60767578 70.86566833 43.57318115 70.85420227 C44.88238525 70.83849182 46.19158936 70.82278137 47.54046631 70.80659485 C52.22881963 71.24784791 55.55897922 72.67115142 59.0223999 75.86592102 C59.50064209 76.45373352 59.97888428 77.04154602 60.47161865 77.64717102 C61.20831787 78.52888977 61.20831787 78.52888977 61.9598999 79.42842102 C65.02531244 83.82184616 64.68328611 89.02704252 64.15911865 94.14717102 C62.66621258 99.6433475 59.77083353 103.24043008 54.91888428 106.14155579 C48.69743696 108.40855344 41.69328482 107.64368314 35.15911865 107.45967102 C33.60576917 107.43455427 32.05238053 107.41174706 30.4989624 107.39131165 C26.71803719 107.33658691 22.93901486 107.25050769 19.15911865 107.14717102 C19.1680011 108.11912415 19.17688354 109.09107727 19.18603516 110.09248352 C19.26728378 119.27279944 19.32716198 128.45304197 19.36636734 137.63363647 C19.38720121 142.35298197 19.4154417 147.07203613 19.46087646 151.79121399 C19.5044846 156.34942978 19.52828733 160.90736616 19.53862762 165.46577454 C19.54599221 167.20084529 19.56037349 168.93590155 19.58203888 170.67085266 C19.61127277 173.10990394 19.61506647 175.54781521 19.61322021 177.98701477 C19.62760132 178.69696091 19.64198242 179.40690704 19.65679932 180.1383667 C19.60831898 186.09598765 17.81486312 191.40187169 13.64087296 195.71661377 C7.6587959 200.81000227 2.80048651 200.68797556 -4.84088135 200.14717102 C-10.14580781 198.41101327 -12.59797363 195.50193282 -15.84088135 191.14717102 C-17.32539083 188.17815205 -16.97718245 185.50373836 -16.98805237 182.18946838 C-16.99172906 181.46512061 -16.99540574 180.74077283 -16.99919385 179.99447513 C-17.01025212 177.55480679 -17.01407815 175.11518101 -17.0178833 172.67549133 C-17.02414635 170.93125777 -17.03079301 169.18702555 -17.03779602 167.4427948 C-17.05522085 162.69473256 -17.0657619 157.9466804 -17.07400155 153.19859409 C-17.07914874 150.23327776 -17.08522461 147.26796457 -17.09151268 144.30265045 C-17.1105692 135.02817964 -17.12479915 125.7537168 -17.13312465 116.47923017 C-17.14289868 105.76736095 -17.16922063 95.05569829 -17.20962554 84.34390187 C-17.23977028 76.06867523 -17.25459198 67.79350784 -17.25790566 59.51822734 C-17.2602581 54.57382347 -17.26924357 49.62964016 -17.29436684 44.6852951 C-17.31762373 40.0329848 -17.32189041 35.38104062 -17.31160545 30.72868729 C-17.3111094 29.02188271 -17.31745045 27.31506027 -17.3311615 25.6083107 C-17.34884799 23.27603733 -17.34179135 20.94508248 -17.32862854 18.61280823 C-17.33101689 17.30830341 -17.33340525 16.0037986 -17.33586597 14.65976334 C-16.58870611 9.35764313 -14.16699354 6.31541272 -10.21588135 2.83467102 C-6.50987074 0.20145295 -4.5311191 0.01782821 0 0 Z " fill="#FE5D0C" transform="translate(16.84088134765625,-0.1471710205078125)"/>
</svg>
